:SAMPLES-PER-SECOND 30
:FULLY-SPECIFIED
:DEGREES
160
root  -0.598772 38.5858 14.0481 -174.602 38.5105 -176.649
RightUpLeg  -26.2971 24.8162 -3.55188
RightLeg  25.8086 16.3774 8.25623
RightFoot  -3.18802 -0.176087 2.18931
RightToes  -5.8209e-011 0 -3.6325e-017
Spine  34.3661 -4.43539 -28.4332
Spine1  2.21617 -13.1396 -2.02819
HEad  4.95496 46.8372 -4.66443
LeftShoulder1  5.64782 -16.7171 -21.5329
LeftArm  65.8256 -69.7824 -130.774
LeftForeArm  73.429 5.99346 -8.53029
LeftHand  -0.246645 0.021 5.37786
RightShoulder  7.00436 14.874 32.1503
RightArm  -33.1165 42.7587 47.2708
RightForeArm  29.028 55.8281 14.1202
RightHand  -0.24729 -0.0210522 -5.37781
LeftUpLeg  -8.00622 35.6377 15.609
LeftLeg  28.5068 7.79926 4.92241
LeftFoot  -12.4943 -0.0773412 -15.0192
LeftToes  -7.45818e-011 -3.37383e-011 1.08613e-011
161
root  -0.616334 38.5747 13.9894 -174.525 39.4892 -176.373
RightUpLeg  -26.2417 25.401 -3.36266
RightLeg  25.8199 16.7129 8.42711
RightFoot  -3.14539 -0.173867 2.16684
RightToes  -5.8209e-011 0 -3.6325e-017
Spine  34.2045 -4.51541 -28.9596
Spine1  1.85983 -13.3743 -1.78668
HEad  4.61805 48.0391 -5.00762
LeftShoulder1  5.45216 -16.5681 -20.7162
LeftArm  70.9159 -69.5187 -135.776
LeftForeArm  72.4681 6.08138 -8.84041
LeftHand  -0.246645 0.021 5.37786
RightShoulder  6.87296 14.6847 31.8248
RightArm  -34.4709 42.9949 46.1994
RightForeArm  30.7564 58.4506 15.6387
RightHand  -0.24729 -0.0210522 -5.37781
LeftUpLeg  -7.46113 36.0277 16.0065
LeftLeg  28.6834 8.19165 5.18358
LeftFoot  -12.7129 -0.107823 -15.265
LeftToes  -7.45818e-011 -3.37383e-011 1.08613e-011
162
root  -0.632784 38.5587 13.9297 -174.361 40.4819 -176.162
RightUpLeg  -26.3674 25.9327 -3.28816
RightLeg  25.9125 17.0861 8.64621
RightFoot  -3.12436 -0.173683 2.17465
RightToes  -5.8209e-011 0 -3.6325e-017
Spine  33.8143 -4.62785 -29.5162
Spine1  1.68418 -13.5728 -1.58708
HEad  4.306 49.121 -5.32633
LeftShoulder1  5.22308 -16.3864 -19.7519
LeftArm  75.5947 -69.0697 -140.712
LeftForeArm  71.7853 6.12784 -8.96162
LeftHand  -0.246645 0.021 5.37786
RightShoulder  6.70293 14.4423 31.387
RightArm  -35.8733 43.2957 45.1146
RightForeArm  32.7643 60.9807 17.3367
RightHand  -0.24729 -0.0210522 -5.37781
LeftUpLeg  -7.0649 36.5622 16.273
LeftLeg  28.8746 8.51522 5.41043
LeftFoot  -12.9474 -0.140751 -15.4698
LeftToes  -7.45818e-011 -3.37383e-011 1.08613e-011
163
root  -0.64573 38.532 13.8708 -174.151 41.468 -175.972
RightUpLeg  -26.6277 26.4144 -3.25823
RightLeg  26.1506 17.4819 8.93181
RightFoot  -3.14232 -0.172538 2.16647
RightToes  -5.8209e-011 0 -3.6325e-017
Spine  33.4437 -4.72791 -30.106
Spine1  1.28451 -13.7905 -1.20019
HEad  4.17495 50.3144 -5.62112
LeftShoulder1  5.03066 -16.2372 -18.9191
LeftArm  80.0375 -68.5329 -145.201
LeftForeArm  71.2748 6.18135 -9.17202
LeftHand  -0.246645 0.021 5.37786
RightShoulder  6.48887 14.1954 30.6933
RightArm  -37.3602 43.3773 44.0136
RightForeArm  35.2089 63.4539 19.2775
RightHand  -0.24729 -0.0210522 -5.37781
LeftUpLeg  -6.74709 37.3304 16.5394
LeftLeg  29.1329 8.60881 5.51824
LeftFoot  -13.2302 -0.179791 -15.6099
LeftToes  -7.45818e-011 -3.37383e-011 1.08613e-011
164
root  -0.653255 38.5019 13.8132 -174.04 42.3693 -175.774
RightUpLeg  -26.7795 26.9049 -3.16212
RightLeg  26.4528 17.7898 9.20103
RightFoot  -3.19714 -0.167732 2.10057
RightToes  -5.8209e-011 0 -3.6325e-017
Spine  33.2426 -4.81285 -30.6848
Spine1  0.784268 -14.051 -0.732305
HEad  3.87559 51.6594 -6.01728
LeftShoulder1  4.81957 -16.0377 -18.0356
LeftArm  84.6379 -67.8893 -149.603
LeftForeArm  70.666 6.25923 -9.51365
LeftHand  -0.246645 0.021 5.37786
RightShoulder  6.24189 13.9317 29.8195
RightArm  -38.9259 43.2934 42.9791
RightForeArm  37.9317 65.9147 21.6155
RightHand  -0.24729 -0.0210522 -5.37781
LeftUpLeg  -6.29701 38.1456 16.9399
LeftLeg  29.4014 8.54837 5.53769
LeftFoot  -13.5151 -0.219465 -15.731
LeftToes  -7.45818e-011 -3.37383e-011 1.08613e-011
165
root  -0.652848 38.4746 13.7553 -174.022 43.1908 -175.567
RightUpLeg  -26.7905 27.4951 -3.01389
RightLeg  26.7267 17.9382 9.38193
RightFoot  -3.28032 -0.161105 2.00573
RightToes  -5.8209e-011 0 -3.6325e-017
Spine  33.0199 -4.91093 -31.2706
Spine1  0.565034 -14.3174 -0.362664
HEad  3.15552 52.9433 -6.56586
LeftShoulder1  4.5573 -15.7462 -16.9674
LeftArm  89.2116 -67.0821 -154.042
LeftForeArm  69.8054 6.34588 -9.85073
LeftHand  -0.246645 0.021 5.37786
RightShoulder  5.97222 13.6072 28.9056
RightArm  -40.5546 43.2727 42.0387
RightForeArm  40.8604 68.3043 24.441
RightHand  -0.24729 -0.0210522 -5.37781
LeftUpLeg  -5.69705 38.8744 17.439
LeftLeg  29.6183 8.49174 5.54847
LeftFoot  -13.7678 -0.256551 -15.9019
LeftToes  -7.45818e-011 -3.37383e-011 1.08613e-011
166
root  -0.646867 38.4468 13.693 -173.947 44.0392 -175.337
RightUpLeg  -26.8408 28.1936 -2.88655
RightLeg  26.9782 18.022 9.52299
RightFoot  -3.3807 -0.155981 1.93366
RightToes  -5.8209e-011 0 -3.6325e-017
Spine  32.6095 -5.05674 -31.865
Spine1  0.560464 -14.5617 -0.0882627
HEad  2.37515 54.0355 -7.05045
LeftShoulder1  4.30093 -15.4473 -15.9056
LeftArm  93.0318 -66.1685 -158.023
LeftForeArm  68.9599 6.40533 -10.021
LeftHand  -0.246645 0.021 5.37786
RightShoulder  5.70554 13.258 28.0218
RightArm  -42.2124 43.3076 41.1057
RightForeArm  44.0677 70.4869 27.6881
RightHand  -0.24729 -0.0210522 -5.37781
LeftUpLeg  -5.10884 39.5351 17.9291
LeftLeg  29.8202 8.51162 5.60237
LeftFoot  -14.0241 -0.296996 -16.1608
LeftToes  -7.45818e-011 -3.37383e-011 1.08613e-011
167
root  -0.643733 38.4155 13.6247 -173.775 44.9664 -175.059
RightUpLeg  -26.9688 28.8984 -2.77236
RightLeg  27.241 18.1858 9.71122
RightFoot  -3.4837 -0.152411 1.88539
RightToes  -5.8209e-011 0 -3.6325e-017
Spine  32.1958 -5.2476 -32.3969
Spine1  0.341574 -14.8072 0.17869
HEad  1.94246 55.0669 -7.28839
LeftShoulder1  4.08437 -15.1899 -14.9835
LeftArm  95.7406 -65.217 -161.266
LeftForeArm  68.6309 6.40438 -9.93428
LeftHand  -0.246645 0.021 5.37786
RightShoulder  5.50625 12.9949 27.3383
RightArm  -43.8699 43.2006 39.9513
RightForeArm  47.7047 72.4359 31.3575
RightHand  -0.24729 -0.0210522 -5.37781
LeftUpLeg  -4.5827 40.1043 18.3925
LeftLeg  30.0668 8.61191 5.71512
LeftFoot  -14.3138 -0.344662 -16.4738
LeftToes  -7.45818e-011 -3.37383e-011 1.08613e-011
168
root  -0.649364 38.3856 13.5567 -173.613 45.8921 -174.765
RightUpLeg  -27.0553 29.5088 -2.63583
RightLeg  27.4915 18.4338 9.94051
RightFoot  -3.56937 -0.148036 1.82451
RightToes  -5.8209e-011 0 -3.6325e-017
Spine  31.9528 -5.44482 -32.8429
Spine1  -0.0969542 -15.0721 0.437553
HEad  1.63518 56.1541 -7.50125
LeftShoulder1  3.85302 -14.8902 -13.9964
LeftArm  97.9382 -64.1757 -164.24
LeftForeArm  68.7828 6.38064 -9.69248
LeftHand  -0.246645 0.021 5.37786
RightShoulder  5.3962 12.8238 27.0035
RightArm  -45.5696 42.9693 38.4705
RightForeArm  52.2683 74.2853 35.8191
RightHand  -0.24729 -0.0210522 -5.37781
LeftUpLeg  -4.06233 40.4984 18.8309
LeftLeg  30.3322 8.79184 5.8822
LeftFoot  -14.5958 -0.391947 -16.7563
LeftToes  -7.45818e-011 -3.37383e-011 1.08613e-011
169
root  -0.661413 38.3618 13.4966 -173.479 46.7378 -174.516
RightUpLeg  -27.1208 30.0332 -2.52665
RightLeg  27.6967 18.6629 10.1439
RightFoot  -3.61902 -0.142035 1.73847
RightToes  -5.8209e-011 0 -3.6325e-017
Spine  31.6995 -5.62626 -33.2838
Spine1  -0.333919 -15.3257 0.67914
HEad  1.13347 57.1611 -7.94668
LeftShoulder1  3.59074 -14.5335 -12.8557
LeftArm  100.477 -63.0489 -167.351
LeftForeArm  68.7217 6.20416 -9.60415
LeftHand  -0.246645 0.021 5.37786
RightShoulder  5.29731 12.6227 26.7967
RightArm  -47.4056 42.8044 36.8675
RightForeArm  58.3525 76.0936 41.6086
RightHand  -0.24729 -0.0210522 -5.37781
LeftUpLeg  -3.60167 40.7796 19.1689
LeftLeg  30.5558 9.02808 6.07743
LeftFoot  -14.8239 -0.430386 -16.9561
LeftToes  -7.45818e-011 -3.37383e-011 1.08613e-011
170
root  -0.67422 38.341 13.444 -173.279 47.5402 -174.3
RightUpLeg  -27.2992 30.5748 -2.50502
RightLeg  27.8744 18.821 10.3003
RightFoot  -3.64004 -0.136364 1.65746
RightToes  -5.8209e-011 0 -3.6325e-017
Spine  31.2982 -5.8331 -33.7208
Spine1  -0.399429 -15.5538 0.902133
HEad  0.741019 57.9207 -8.34279
LeftShoulder1  3.37461 -14.2593 -11.854
LeftArm  103.337 -62.0159 -170.243
LeftForeArm  68.1324 5.27774 -9.90324
LeftHand  -0.246645 0.021 5.37786
RightShoulder  5.14122 12.3503 26.3619
RightArm  -49.3317 42.6407 35.3911
RightForeArm  65.7171 77.6795 48.7261
RightHand  -0.24729 -0.0210522 -5.37781
LeftUpLeg  -3.27089 41.1766 19.4018
LeftLeg  30.7403 9.22515 6.24191
LeftFoot  -15.0234 -0.46339 -17.0917
LeftToes  -7.45818e-011 -3.37383e-011 1.08613e-011
171
root  -0.68509 38.3182 13.3938 -173.03 48.3633 -174.075
RightUpLeg  -27.5472 31.2076 -2.52698
RightLeg  28.0523 18.9356 10.435
RightFoot  -3.67093 -0.133453 1.61761
RightToes  -5.8209e-011 0 -3.6325e-017
Spine  30.85 -6.04676 -34.1396
Spine1  -0.536303 -15.7581 1.14808
HEad  0.536723 58.4503 -8.5376
LeftShoulder1  3.22827 -14.1166 -11.1051
LeftArm  106.081 -61.1548 -172.732
LeftForeArm  67.4018 4.11599 -10.3014
LeftHand  -0.246645 0.021 5.37786
RightShoulder  4.92992 12.05 25.6012
RightArm  -51.2172 42.3576 34.0723
RightForeArm  73.2751 78.8456 56.3653
RightHand  -0.24729 -0.0210522 -5.37781
LeftUpLeg  -2.93034 41.8325 19.6931
LeftLeg  30.9129 9.24984 6.29692
LeftFoot  -15.2397 -0.498272 -17.1969
LeftToes  -7.45818e-011 -3.37383e-011 1.08613e-011
172
root  -0.69431 38.2958 13.3462 -172.859 49.178 -173.855
RightUpLeg  -27.7007 31.8758 -2.52209
RightLeg  28.214 19.0412 10.559
RightFoot  -3.73045 -0.133052 1.61649
RightToes  -5.8209e-011 0 -3.6325e-017
Spine  30.5015 -6.21265 -34.6054
Spine1  -0.731734 -15.9692 1.46155
HEad  -0.00948943 58.9365 -8.93561
LeftShoulder1  3.0882 -13.9515 -10.4064
LeftArm  108.509 -60.3041 -175.076
LeftForeArm  67.1254 3.05513 -10.5225
LeftHand  -0.246645 0.021 5.37786
RightShoulder  4.73199 11.7787 24.8372
RightArm  -52.9965 42.0432 32.7037
RightForeArm  80.6509 79.6375 64.0267
RightHand  -0.24729 -0.0210522 -5.37781
LeftUpLeg  -2.41194 42.6364 20.1435
LeftLeg  31.0472 9.07396 6.21653
LeftFoot  -15.457 -0.533505 -17.2969
LeftToes  -7.45818e-011 -3.37383e-011 1.08613e-011
